M48
; DRILL file {KiCad 9.0.2} date 2026-01-15T06:11:49-0800
; FORMAT={-:-/ absolute / metric / decimal}
; #@! TF.CreationDate,2026-01-15T06:11:49-08:00
; #@! TF.GenerationSoftware,Kicad,Pcbnew,9.0.2
; #@! TF.FileFunction,Plated,1,2,PTH
FMAT,2
METRIC
; #@! TA.AperFunction,Plated,PTH,ViaDrill
T1C0.300
; #@! TA.AperFunction,Plated,PTH,ComponentDrill
T2C0.700
; #@! TA.AperFunction,Plated,PTH,ComponentDrill
T3C0.750
; #@! TA.AperFunction,Plated,PTH,ComponentDrill
T4C0.800
; #@! TA.AperFunction,Plated,PTH,ComponentDrill
T5C0.900
; #@! TA.AperFunction,Plated,PTH,ComponentDrill
T6C0.950
; #@! TA.AperFunction,Plated,PTH,ComponentDrill
T7C1.000
; #@! TA.AperFunction,Plated,PTH,ComponentDrill
T8C1.700
; #@! TA.AperFunction,Plated,PTH,ComponentDrill
T9C2.000
; #@! TA.AperFunction,Plated,PTH,ComponentDrill
T10C3.200
%
G90
G05
T1
X161.5Y-141.5
T2
X137.13Y-111.5
X144.75Y-111.5
X144.75Y-118.5
X144.75Y-126.12
X162.95Y-115.7
X162.95Y-118.24
X162.95Y-128.5
X162.95Y-130.94
X170.57Y-115.7
X170.57Y-118.24
X170.57Y-128.5
X170.57Y-130.94
T3
X151.25Y-110.5
X151.25Y-111.77
X151.25Y-113.04
T4
X127.94Y-119.19
X127.94Y-121.73
X127.94Y-124.27
X127.94Y-126.81
X135.56Y-119.19
X135.56Y-121.73
X135.56Y-124.27
X135.56Y-126.81
T5
X144.0Y-132.96
X144.0Y-135.5
X155.25Y-118.69
X155.25Y-126.31
T6
X114.0Y-136.5
X114.0Y-139.0
X114.0Y-141.5
X180.7Y-132.0
X180.7Y-134.5
X180.7Y-137.0
T7
X114.25Y-110.94
X114.25Y-113.44
X127.5Y-140.69
X127.5Y-148.31
X128.25Y-106.5
X128.25Y-111.5
X130.75Y-109.0
X134.0Y-140.75
X134.0Y-148.25
X141.5Y-144.41
X144.0Y-146.91
X146.5Y-144.41
X156.5Y-144.41
X159.0Y-146.91
X161.5Y-144.41
X166.5Y-140.69
X166.5Y-148.31
X180.7Y-120.75
X180.7Y-123.25
T8
X114.0Y-123.5
T9
X108.85Y-125.1
X119.15Y-125.1
T10
X103.5Y-103.0
X103.5Y-112.5
X103.5Y-150.0
X183.5Y-112.5
X183.5Y-150.0
X190.5Y-103.0
X190.5Y-150.0
M30
