%TF.GenerationSoftware,KiCad,Pcbnew,9.0.2*%
%TF.CreationDate,2026-01-15T06:12:19-08:00*%
%TF.ProjectId,COS Adapter V2,434f5320-4164-4617-9074-65722056322e,rev?*%
%TF.SameCoordinates,Original*%
%TF.FileFunction,Copper,L1,Top*%
%TF.FilePolarity,Positive*%
%FSLAX46Y46*%
G04 Gerber Fmt 4.6, Leading zero omitted, Abs format (unit mm)*
G04 Created by KiCad (PCBNEW 9.0.2) date 2026-01-15 06:12:19*
%MOMM*%
%LPD*%
G01*
G04 APERTURE LIST*
G04 Aperture macros list*
%AMRoundRect*
0 Rectangle with rounded corners*
0 $1 Rounding radius*
0 $2 $3 $4 $5 $6 $7 $8 $9 X,Y pos of 4 corners*
0 Add a 4 corners polygon primitive as box body*
4,1,4,$2,$3,$4,$5,$6,$7,$8,$9,$2,$3,0*
0 Add four circle primitives for the rounded corners*
1,1,$1+$1,$2,$3*
1,1,$1+$1,$4,$5*
1,1,$1+$1,$6,$7*
1,1,$1+$1,$8,$9*
0 Add four rect primitives between the rounded corners*
20,1,$1+$1,$2,$3,$4,$5,0*
20,1,$1+$1,$4,$5,$6,$7,0*
20,1,$1+$1,$6,$7,$8,$9,0*
20,1,$1+$1,$8,$9,$2,$3,0*%
G04 Aperture macros list end*
%TA.AperFunction,ComponentPad*%
%ADD10C,5.600000*%
%TD*%
%TA.AperFunction,ComponentPad*%
%ADD11R,1.550000X1.550000*%
%TD*%
%TA.AperFunction,ComponentPad*%
%ADD12C,1.550000*%
%TD*%
%TA.AperFunction,ComponentPad*%
%ADD13RoundRect,0.250000X-0.950000X-0.550000X0.950000X-0.550000X0.950000X0.550000X-0.950000X0.550000X0*%
%TD*%
%TA.AperFunction,ComponentPad*%
%ADD14O,2.400000X1.600000*%
%TD*%
%TA.AperFunction,ComponentPad*%
%ADD15R,1.800000X1.800000*%
%TD*%
%TA.AperFunction,ComponentPad*%
%ADD16C,1.800000*%
%TD*%
%TA.AperFunction,ComponentPad*%
%ADD17C,1.400000*%
%TD*%
%TA.AperFunction,ComponentPad*%
%ADD18C,2.500000*%
%TD*%
%TA.AperFunction,ComponentPad*%
%ADD19RoundRect,0.250000X-0.725000X0.600000X-0.725000X-0.600000X0.725000X-0.600000X0.725000X0.600000X0*%
%TD*%
%TA.AperFunction,ComponentPad*%
%ADD20O,1.950000X1.700000*%
%TD*%
%TA.AperFunction,ComponentPad*%
%ADD21RoundRect,0.250000X-0.750000X0.600000X-0.750000X-0.600000X0.750000X-0.600000X0.750000X0.600000X0*%
%TD*%
%TA.AperFunction,ComponentPad*%
%ADD22O,2.000000X1.700000*%
%TD*%
%TA.AperFunction,ComponentPad*%
%ADD23R,1.400000X1.400000*%
%TD*%
%TA.AperFunction,ComponentPad*%
%ADD24R,1.500000X1.050000*%
%TD*%
%TA.AperFunction,ComponentPad*%
%ADD25O,1.500000X1.050000*%
%TD*%
%TA.AperFunction,ComponentPad*%
%ADD26RoundRect,0.250000X0.650000X-0.650000X0.650000X0.650000X-0.650000X0.650000X-0.650000X-0.650000X0*%
%TD*%
%TA.AperFunction,ComponentPad*%
%ADD27C,2.550000*%
%TD*%
%TA.AperFunction,ComponentPad*%
%ADD28C,3.000000*%
%TD*%
%TA.AperFunction,ComponentPad*%
%ADD29RoundRect,0.250000X0.725000X-0.600000X0.725000X0.600000X-0.725000X0.600000X-0.725000X-0.600000X0*%
%TD*%
%TA.AperFunction,ComponentPad*%
%ADD30RoundRect,0.250000X0.750000X-0.600000X0.750000X0.600000X-0.750000X0.600000X-0.750000X-0.600000X0*%
%TD*%
%TA.AperFunction,ViaPad*%
%ADD31C,0.600000*%
%TD*%
%TA.AperFunction,Conductor*%
%ADD32C,0.300000*%
%TD*%
G04 APERTURE END LIST*
D10*
%TO.P,H2,1*%
%TO.N,N/C*%
X103500000Y-112500000D03*
%TD*%
%TO.P,H5,1*%
%TO.N,N/C*%
X183500000Y-112500000D03*
%TD*%
%TO.P,H6,1*%
%TO.N,N/C*%
X183500000Y-150000000D03*
%TD*%
%TO.P,H7,1*%
%TO.N,N/C*%
X190500000Y-150000000D03*
%TD*%
%TO.P,H3,1*%
%TO.N,N/C*%
X103500000Y-150000000D03*
%TD*%
%TO.P,H1,1*%
%TO.N,N/C*%
X103500000Y-103000000D03*
%TD*%
%TO.P,H4,1*%
%TO.N,N/C*%
X190500000Y-103000000D03*
%TD*%
D11*
%TO.P,RV1,1,1*%
%TO.N,+12V*%
X128250000Y-111500000D03*
D12*
%TO.P,RV1,2,2*%
%TO.N,Net-(U1--)*%
X130750000Y-109000000D03*
%TO.P,RV1,3,3*%
%TO.N,GND*%
X128250000Y-106500000D03*
%TD*%
D13*
%TO.P,U1,1,NULL*%
%TO.N,unconnected-(U1-NULL-Pad1)*%
X127940000Y-119190000D03*
D14*
%TO.P,U1,2,-*%
%TO.N,Net-(U1--)*%
X127940000Y-121730000D03*
%TO.P,U1,3,+*%
%TO.N,Net-(J1-Pin_1)*%
X127940000Y-124270000D03*
%TO.P,U1,4,V-*%
%TO.N,GND*%
X127940000Y-126810000D03*
%TO.P,U1,5,NULL*%
%TO.N,unconnected-(U1-NULL-Pad5)*%
X135560000Y-126810000D03*
%TO.P,U1,6*%
%TO.N,Net-(R1-Pad1)*%
X135560000Y-124270000D03*
%TO.P,U1,7,V+*%
%TO.N,+12V*%
X135560000Y-121730000D03*
%TO.P,U1,8,NC*%
%TO.N,unconnected-(U1-NC-Pad8)*%
X135560000Y-119190000D03*
%TD*%
D15*
%TO.P,D1,1,K*%
%TO.N,GND*%
X144000000Y-135500000D03*
D16*
%TO.P,D1,2,A*%
%TO.N,Net-(D1-A)*%
X144000000Y-132960000D03*
%TD*%
D17*
%TO.P,R1,1*%
%TO.N,Net-(R1-Pad1)*%
X137130000Y-111500000D03*
%TO.P,R1,2*%
%TO.N,Net-(Q1-B)*%
X144750000Y-111500000D03*
%TD*%
D18*
%TO.P,C1,1*%
%TO.N,Net-(C1-Pad1)*%
X134000000Y-148250000D03*
%TO.P,C1,2*%
%TO.N,Net-(J8-Pin_2)*%
X134000000Y-140750000D03*
%TD*%
%TO.P,R4,1*%
%TO.N,Net-(R4-Pad1)*%
X166500000Y-148310000D03*
%TO.P,R4,2*%
%TO.N,Net-(J8-Pin_3)*%
X166500000Y-140690000D03*
%TD*%
D11*
%TO.P,RV3,1,1*%
%TO.N,Net-(R4-Pad1)*%
X156500000Y-144410000D03*
D12*
%TO.P,RV3,2,2*%
%TO.N,Net-(J9-Pin_3)*%
X159000000Y-146910000D03*
%TO.P,RV3,3,3*%
%TO.N,Net-(J8-Pin_2)*%
X161500000Y-144410000D03*
%TD*%
D19*
%TO.P,J9,1,Pin_1*%
%TO.N,Net-(J9-Pin_1)*%
X114000000Y-136500000D03*
D20*
%TO.P,J9,2,Pin_2*%
%TO.N,Net-(J8-Pin_2)*%
X114000000Y-139000000D03*
%TO.P,J9,3,Pin_3*%
%TO.N,Net-(J9-Pin_3)*%
X114000000Y-141500000D03*
%TD*%
D21*
%TO.P,J1,1,Pin_1*%
%TO.N,Net-(J1-Pin_1)*%
X114250000Y-110940000D03*
D22*
%TO.P,J1,2,Pin_2*%
%TO.N,GND*%
X114250000Y-113440000D03*
%TD*%
D18*
%TO.P,R3,1*%
%TO.N,Net-(J9-Pin_1)*%
X127500000Y-140690000D03*
%TO.P,R3,2*%
%TO.N,Net-(C1-Pad1)*%
X127500000Y-148310000D03*
%TD*%
D23*
%TO.P,K1,1*%
%TO.N,unconnected-(K1-Pad1)*%
X162950000Y-115700000D03*
D17*
%TO.P,K1,2*%
%TO.N,Net-(D2-A)*%
X162950000Y-118240000D03*
%TO.P,K1,6*%
%TO.N,GND*%
X162950000Y-128500000D03*
%TO.P,K1,7*%
%TO.N,Net-(J2-Pin_1)*%
X162950000Y-130940000D03*
%TO.P,K1,8*%
X170570000Y-130940000D03*
%TO.P,K1,9*%
%TO.N,N/C*%
X170570000Y-128500000D03*
%TO.P,K1,13*%
X170570000Y-118240000D03*
%TO.P,K1,14*%
%TO.N,Net-(J2-Pin_2)*%
X170570000Y-115700000D03*
%TD*%
D24*
%TO.P,Q1,1,E*%
%TO.N,Net-(D2-A)*%
X151250000Y-113040000D03*
D25*
%TO.P,Q1,2,B*%
%TO.N,Net-(Q1-B)*%
X151250000Y-111770000D03*
%TO.P,Q1,3,C*%
%TO.N,+12V*%
X151250000Y-110500000D03*
%TD*%
D26*
%TO.P,D2,1,K*%
%TO.N,GND*%
X155250000Y-126310000D03*
D16*
%TO.P,D2,2,A*%
%TO.N,Net-(D2-A)*%
X155250000Y-118690000D03*
%TD*%
D27*
%TO.P,J3,1,In*%
%TO.N,+12V*%
X114000000Y-123500000D03*
D28*
%TO.P,J3,2,Ext*%
%TO.N,GND*%
X108850000Y-125100000D03*
X119150000Y-125100000D03*
%TD*%
D11*
%TO.P,RV2,1,1*%
%TO.N,Net-(C1-Pad1)*%
X141500000Y-144410000D03*
D12*
%TO.P,RV2,2,2*%
%TO.N,Net-(J8-Pin_1)*%
X144000000Y-146910000D03*
%TO.P,RV2,3,3*%
%TO.N,Net-(J8-Pin_2)*%
X146500000Y-144410000D03*
%TD*%
D17*
%TO.P,R2,1*%
%TO.N,Net-(D1-A)*%
X144750000Y-126120000D03*
%TO.P,R2,2*%
%TO.N,Net-(D2-A)*%
X144750000Y-118500000D03*
%TD*%
D29*
%TO.P,J8,1,Pin_1*%
%TO.N,Net-(J8-Pin_1)*%
X180700000Y-137000000D03*
D20*
%TO.P,J8,2,Pin_2*%
%TO.N,Net-(J8-Pin_2)*%
X180700000Y-134500000D03*
%TO.P,J8,3,Pin_3*%
%TO.N,Net-(J8-Pin_3)*%
X180700000Y-132000000D03*
%TD*%
D30*
%TO.P,J2,1,Pin_1*%
%TO.N,Net-(J2-Pin_1)*%
X180700000Y-123250000D03*
D22*
%TO.P,J2,2,Pin_2*%
%TO.N,Net-(J2-Pin_2)*%
X180700000Y-120750000D03*
%TD*%
D31*
%TO.N,Net-(J8-Pin_2)*%
X161500000Y-141500000D03*
%TD*%
D32*
%TO.N,Net-(J8-Pin_2)*%
X161500000Y-141500000D02*
X161500000Y-144410000D01*
%TD*%
M02*
